<svg xmlns="http://www.w3.org/2000/svg" xmlns:xlink="http://www.w3.org/1999/xlink" version="1.1" id="Layer_1" x="0px" y="0px" style="enable-background:new 0 0 1000 1000;" xml:space="preserve" viewBox="299.5 442 401 116">
<style type="text/css">
	.st0{fill:url(#SVGID_1_);}
	.st1{fill:#FFFFFF;}
	.st2{fill:#33313C;}
</style>
<g>
	<g>
		<linearGradient id="SVGID_1_" gradientUnits="userSpaceOnUse" x1="357.4816" y1="442" x2="357.4816" y2="558">
			<stop offset="0" style="stop-color:#338CFA"/>
			<stop offset="0.9988" style="stop-color:#462DE0"/>
		</linearGradient>
		<path class="st0" d="M399.5,558h-84c-8.8,0-16-7.2-16-16v-84c0-8.8,7.2-16,16-16h84c8.8,0,16,7.2,16,16v84    C415.5,550.8,408.3,558,399.5,558z"/>
		<path class="st1" d="M390.4,461.3h-15c-5.3,0-10.1,2-13.8,5.3c1.1,1.6,2.1,3.3,2.9,5.2c2.7-2.9,6.6-4.7,10.9-4.7h15v12.2h-30.1    h-0.2c0-0.1,0-0.1,0-0.2c0-0.1,0-0.2,0-0.3c0-0.2-0.1-0.5-0.1-0.7c0-0.1,0-0.2-0.1-0.3c0-0.2-0.1-0.4-0.1-0.6    c0-0.1-0.1-0.3-0.1-0.4c0-0.2-0.1-0.3-0.1-0.5c-0.1-0.2-0.1-0.5-0.2-0.7c0-0.1-0.1-0.2-0.1-0.4c-0.1-0.2-0.1-0.3-0.2-0.5    c0-0.1-0.1-0.2-0.1-0.3c-0.1-0.3-0.3-0.6-0.4-1c0,0,0-0.1-0.1-0.1c-0.1-0.2-0.2-0.4-0.3-0.5c0,0,0-0.1-0.1-0.1    c-3.4-6.7-10.4-11.4-18.5-11.4h-15h-5.7v5.7v12.2v5.7h5.7h24c0.2-2,0.1-4.1-0.6-5.7h-23.4v-12.2h15c7.3,0,13.4,5.2,14.8,12.2l0,0    c0.1,0.5,0.2,0.9,0.2,1.4c0,0,0,0.1,0,0.1c0,0.2,0,0.4,0,0.6c0,0.2,0,0.5,0,0.7c0,8.3-6.7,15-15,15v5.7c7.3,0,13.4,5.2,14.8,12.2    h-29.8h-5.7v5.7v12.2v5.7l0,0h20.8c5.3,0,10.1-2,13.8-5.3c-1.1-1.6-2.1-3.3-2.9-5.2c-2.7,2.9-6.6,4.7-10.9,4.7h-15v-12.2h30.3    c1.4,10.1,10.1,17.9,20.6,17.9h15h5.7v-5.7v-12.2V515l0,0h-5.7l0,0h-24c-0.2,2-0.1,4.1,0.6,5.7h23.4v12.2h-15c-8.3,0-15-6.7-15-15    c0-8.3,6.7-15,15-15v-5.7c-7.3,0-13.4-5.2-14.8-12.2h29.8h5.7v-5.7v-12.2v-5.7H390.4z M364.9,500c-3,1.8-5.6,4.3-7.4,7.4    c-1.8-3-4.3-5.6-7.4-7.4c3-1.8,5.6-4.3,7.4-7.4C359.3,495.7,361.8,498.2,364.9,500z"/>
	</g>
	<g>
		<path class="st2" d="M447.5,527.3v-53.8H483l0,7.8h-26.4v15.1h23.3v7.7h-23.4v15.4l27,0v7.8H447.5z"/>
		<path class="st2" d="M506.5,527.6c-3,0-5.4-0.4-7.1-1.2c-1.7-0.8-2.8-2-3.5-3.4c-0.6-1.5-1-3.3-1-5.3v-22.4h-6.2v-6.4h6.5    l2.3-11.4h6.5v11.4h8.6v6.4H504l0,22.1c0,1.1,0.1,2,0.4,2.5c0.3,0.5,0.7,0.9,1.3,1c0.6,0.2,1.4,0.2,2.3,0.2h4.8v5.7    c-0.5,0.2-1.3,0.4-2.3,0.5C509.5,527.5,508.1,527.6,506.5,527.6z"/>
		<path class="st2" d="M521.1,527.3V472h8.9v22.4c0.6-1,1.4-1.9,2.5-2.8c1-0.9,2.3-1.6,3.7-2.2c1.5-0.6,3.2-0.9,5.3-0.9    c2.5,0,4.7,0.5,6.7,1.4c2,0.9,3.7,2.3,4.9,4.1c1.2,1.8,1.8,3.9,1.8,6.3v27h-9.1v-25.4c0-2-0.7-3.5-2.1-4.6    c-1.4-1.1-3.2-1.6-5.3-1.6c-1.4,0-2.8,0.2-4.1,0.7c-1.3,0.5-2.3,1.2-3.1,2.2c-0.8,1-1.2,2.2-1.2,3.7v25.1H521.1z"/>
		<path class="st2" d="M581.6,528c-3.7,0-6.9-0.8-9.8-2.4c-2.8-1.6-5-3.8-6.6-6.7c-1.6-2.9-2.4-6.4-2.4-10.4c0-3.9,0.7-7.4,2.1-10.5    c1.4-3.1,3.5-5.5,6.2-7.2c2.7-1.8,6-2.6,9.8-2.6c3.8,0,7,0.8,9.6,2.4c2.6,1.6,4.5,3.9,5.9,6.7c1.3,2.9,2,6.3,2,10.1v2.8h-26.6    c0,2.2,0.3,4.1,1,5.8c0.7,1.7,1.8,3,3.2,4c1.4,1,3.2,1.4,5.2,1.4c2.1,0,4-0.5,5.6-1.4c1.6-1,2.6-2.4,3.1-4.4h8.3    c-0.4,2.7-1.5,4.9-3.2,6.8c-1.7,1.9-3.7,3.3-6.1,4.2C586.7,527.5,584.2,528,581.6,528z M571.9,504.5h18.1c0-1.9-0.3-3.5-1-5    c-0.7-1.5-1.6-2.7-3-3.6c-1.3-0.9-3-1.3-5-1.3c-2,0-3.7,0.5-5,1.4c-1.4,1-2.4,2.2-3.1,3.7C572.2,501.3,571.9,502.9,571.9,504.5z"/>
		<path class="st2" d="M607.1,527.3v-38.4h8.7v8.3c0.6-1.9,1.5-3.5,2.7-4.9c1.2-1.4,2.5-2.4,4.1-3.1c1.6-0.7,3.3-1.1,5.1-1.1    c0.4,0,0.9,0,1.3,0.1c0.4,0,0.7,0.1,0.9,0.3v8.7c-0.3-0.1-0.6-0.2-1.1-0.3c-0.4,0-0.8-0.1-1.1-0.1c-1.9-0.1-3.5-0.1-4.9,0.2    c-1.4,0.3-2.6,0.8-3.6,1.5c-1,0.7-1.7,1.6-2.2,2.7c-0.5,1.1-0.7,2.3-0.7,3.8v22.3H607.1z"/>
		<path class="st2" d="M659.1,528c-5,0-9-0.8-12-2.5c-3-1.6-5.2-4-6.6-7.1c-1.4-3.1-2-6.9-2-11.3v-33.6h9.3V508c0,4.2,1,7.2,3.1,9.2    c2,2,4.8,3,8.3,3c2.4,0,4.4-0.4,6.1-1.3c1.7-0.9,3.1-2.2,4-4c0.9-1.8,1.4-4.1,1.4-6.9v-34.5h9.1v34.1c0,4.3-0.7,7.9-2.1,11    c-1.4,3-3.6,5.4-6.6,7C668,527.2,664,528,659.1,528z"/>
		<path class="st2" d="M691.5,527.3v-53.8h9v53.8H691.5z"/>
	</g>
</g>
</svg>